<svg width="127" height="109" viewBox="0 0 127 109" fill="none" xmlns="http://www.w3.org/2000/svg">
<g clip-path="url(#clip0_1_17321)">
<path d="M127 41.4301C127 42.1091 127 42.7888 127 43.4677C116.932 51.354 106.896 59.2735 96.7656 67.0926C95.0647 68.405 94.5365 69.579 95.0826 71.6128C97.9795 82.3964 100.672 93.2248 103.475 104.028C103.895 105.646 104.417 107.233 102.615 108.423C100.824 109.607 99.2594 108.735 97.6893 107.877C87.0023 102.04 76.2818 96.2511 65.6359 90.353C64.047 89.4732 62.9384 89.4994 61.3718 90.3653C50.6403 96.3005 39.877 102.192 29.0239 107.944C27.7937 108.596 25.4575 108.885 24.5124 108.26C23.5836 107.647 23.2472 105.55 23.5554 104.283C26.2117 93.3623 29.0136 82.4698 31.9251 71.602C32.4644 69.5875 31.9422 68.4026 30.2378 67.088C20.1029 59.2751 10.0681 51.3533 0 43.4677C0 42.7888 0 42.1091 0 41.4301C1.36285 40.7187 2.6692 39.5045 4.09711 39.374C16.2386 38.2594 28.3921 37.2097 40.567 36.4581C43.6103 36.2704 44.8653 35.2794 45.9576 32.8541C50.582 22.5888 55.4154 12.3992 60.3351 2.24661C60.8325 1.21931 62.4214 0.000448661 63.5026 0.00122107C64.5846 0.00199348 65.7626 1.33981 66.7085 2.25125C67.2513 2.77417 67.4216 3.613 67.7503 4.31358C72.4261 14.2869 77.1388 24.2464 81.7324 34.2506C82.4138 35.7352 83.3118 36.2256 85.0308 36.3515C97.6637 37.2746 110.293 38.2409 122.905 39.3693C124.331 39.4968 125.638 40.7164 127 41.4301Z" fill="#F2FF00"/>
</g>
<defs>
<clipPath id="clip0_1_17321">
<rect width="127" height="109" fill="white"/>
</clipPath>
</defs>
</svg>
