<svg width="18" height="18" viewBox="0 0 18 18" fill="none" xmlns="http://www.w3.org/2000/svg">
<g clip-path="url(#clip0_456_126)">
<path d="M6.85537 13.061C6.82244 13.0244 6.78878 12.9881 6.75659 12.9507C6.37765 12.5098 6.00019 12.0676 5.61886 11.6291C5.5611 11.5627 5.56294 11.5239 5.62125 11.4589C5.99614 11.0414 6.41113 10.6796 6.88002 10.3917C6.96666 10.3386 7.06176 10.3018 7.15116 10.2536C7.19696 10.2291 7.24424 10.2027 7.2814 10.1661C7.36748 10.0811 7.42616 10.0763 7.50747 10.1629C7.99126 10.6771 8.55083 11.0688 9.18196 11.3361C9.92383 11.6503 10.6944 11.7719 11.4896 11.6901C12.6967 11.5659 13.7307 11.0424 14.5945 10.126C14.6127 10.1068 14.6611 10.0989 14.6846 10.1108C15.2411 10.3876 15.7504 10.7405 16.1982 11.195C16.6091 11.6121 16.9579 12.0808 17.2417 12.6067C17.4578 13.0075 17.633 13.428 17.7569 13.8712C17.9041 14.3978 17.9918 14.937 17.9964 15.4886C18.0003 15.9344 18.002 16.3802 17.9966 16.8258C17.9882 17.5401 17.3929 18.0944 16.7403 17.9863C16.5703 17.9581 16.406 17.8822 16.2427 17.8177C15.5459 17.5424 14.8334 17.3283 14.1065 17.1678C13.2489 16.9784 12.3823 16.8733 11.5082 16.8454C10.6613 16.8183 9.81585 16.8496 8.97759 16.9896C8.47265 17.074 7.96955 17.1737 7.46939 17.2859C7.33879 17.3152 7.24608 17.296 7.13883 17.2232C6.68577 16.9163 6.22295 16.6263 5.77393 16.313C5.40805 16.0578 5.06481 15.7699 4.83303 15.3568C4.65515 15.0398 4.57587 14.6911 4.57053 14.3283C4.5652 13.9497 4.59132 13.5702 4.60346 13.1912C4.60622 13.104 4.6592 13.0955 4.72413 13.0955C5.28205 13.0965 5.83978 13.0957 6.3977 13.0957C6.52021 13.0957 6.64291 13.0967 6.76542 13.0959C6.79154 13.0957 6.81748 13.0905 6.8436 13.0878C6.84764 13.079 6.85151 13.0699 6.85537 13.061Z" fill="#808285"/>
<path d="M15.0514 6.28093C15.0361 7.38652 14.6872 8.35025 14.0137 9.1745C13.6609 9.60643 13.2373 9.94623 12.7494 10.1882C12.6992 10.2131 12.6576 10.2712 12.5931 10.2248C12.5888 10.2216 12.5739 10.2286 12.5688 10.2351C12.4487 10.3916 12.2651 10.3976 12.1056 10.4469C11.5595 10.6155 10.9999 10.656 10.4399 10.5541C10.1488 10.5012 9.86345 10.4047 9.57962 10.3132C9.47955 10.2809 9.39677 10.1891 9.29726 10.1519C9.06383 10.0645 8.86387 9.91889 8.66098 9.77385C8.49413 9.65438 8.37769 9.4824 8.23752 9.33538C8.15714 9.25117 8.05854 9.18401 7.9903 9.09049C7.88361 8.94426 7.81113 8.76733 7.69635 8.63042C7.52582 8.42693 7.42907 8.18402 7.33525 7.94011C7.06227 7.23039 6.97195 6.49412 7.06669 5.72952C7.18515 4.77351 7.55765 3.95224 8.18197 3.26669C8.72591 2.66951 9.37562 2.26116 10.1379 2.07788C10.5924 1.96871 11.0516 1.93899 11.5166 2.00338C12.5635 2.14842 13.4297 2.65208 14.105 3.52229C14.5694 4.12066 14.8704 4.80779 14.9789 5.58408C15.0115 5.81491 15.0278 6.04851 15.0514 6.28093Z" fill="#808285"/>
<path d="M5.21028 6.49075C4.31297 6.47351 3.51242 6.08438 2.89141 5.28965C2.60923 4.92865 2.41498 4.51178 2.31068 4.05468C2.14862 3.34476 2.19295 2.64494 2.4617 1.97029C2.6841 1.41195 3.029 0.955048 3.48998 0.60316C4.0823 0.151213 4.74433 -0.0558383 5.4656 0.0129146C6.39454 0.101481 7.14395 0.550258 7.68513 1.38064C7.88913 1.69389 8.04052 2.03271 8.13507 2.40263C8.15494 2.48089 8.14243 2.52269 8.09019 2.57183C7.82383 2.82208 7.5801 3.09511 7.37223 3.4044C7.04572 3.89023 6.80401 4.41845 6.65888 4.99879C6.56911 5.35761 6.51061 5.72001 6.50399 6.09151C6.50289 6.15531 6.48173 6.19355 6.42526 6.2201C6.0581 6.39347 5.67328 6.47589 5.21028 6.49075Z" fill="#808285"/>
<path d="M0.0220909 11.9235C0.0125255 11.8157 -0.000534924 11.7385 1.69244e-05 11.6612C0.00479961 11.0438 -0.000167025 10.426 0.0228266 9.80941C0.0403018 9.34082 0.169986 8.89383 0.341427 8.46447C0.554072 7.93188 0.854646 7.46111 1.2334 7.0486C1.59265 6.65768 2.00856 6.35393 2.46494 6.11142C2.52583 6.07912 2.55894 6.11657 2.60125 6.15322C2.81812 6.34026 3.02782 6.53998 3.2585 6.70503C3.62879 6.96974 4.04359 7.12666 4.47771 7.23088C4.94881 7.34402 5.42082 7.34699 5.89302 7.25921C6.08525 7.22355 6.27288 7.15797 6.46087 7.09912C6.53427 7.07614 6.55597 7.09972 6.57142 7.17521C6.60821 7.35531 6.67315 7.53086 6.69118 7.71235C6.70718 7.87304 6.75409 8.01688 6.80762 8.16232C6.80982 8.16846 6.80854 8.17698 6.81203 8.18134C6.95845 8.3656 6.96269 8.6315 7.13781 8.80645C7.24247 8.91087 7.30373 9.06542 7.3865 9.19599C7.41391 9.23918 7.45254 9.27445 7.47682 9.31923C7.51177 9.38323 7.50754 9.43078 7.42716 9.46129C7.31219 9.50508 7.20274 9.56511 7.09108 9.61841C6.96121 9.68023 6.82564 9.73175 6.70295 9.80724C6.56719 9.89065 6.44505 9.99923 6.31353 10.091C6.24197 10.1409 6.15184 10.1651 6.08948 10.2245C5.8062 10.4942 5.52972 10.7724 5.25085 11.0476C5.23099 11.0672 5.21094 11.0868 5.18205 11.1153C5.08879 11.0085 4.99903 10.9061 4.90981 10.8033C4.7884 10.6636 4.66479 10.5257 4.54688 10.3828C4.49924 10.3252 4.47054 10.2491 4.42142 10.1932C4.30995 10.0666 4.18689 9.95187 4.07652 9.82408C3.95658 9.68499 3.84842 9.53401 3.72977 9.39353C3.67293 9.32636 3.59752 9.27742 3.54123 9.21006C3.42773 9.07413 3.32214 8.93068 3.21233 8.7914C3.15696 8.72126 3.09956 8.6531 3.04254 8.58474C2.97779 8.50727 2.93309 8.49835 2.87864 8.58197C2.74233 8.7914 2.57825 8.97328 2.41619 9.15755C2.36138 9.21976 2.28706 9.26256 2.23445 9.32636C2.08232 9.51043 1.93976 9.70361 1.78745 9.88748C1.71498 9.97486 1.62466 10.045 1.55016 10.1306C1.4924 10.197 1.45193 10.2806 1.39472 10.3474C0.964648 10.8494 0.532183 11.3493 0.100269 11.8496C0.0842657 11.868 0.0649511 11.8831 0.0220909 11.9235Z" fill="#808285"/>
<path d="M7.2159 17.9807C7.15115 17.9698 7.08585 17.9621 7.02184 17.9478C6.3473 17.7982 5.66871 17.6665 4.99987 17.4917C4.42429 17.3413 3.87612 17.1036 3.38534 16.7317C2.87286 16.3431 2.52998 15.8193 2.29305 15.2019C2.0427 14.549 1.93086 13.8621 1.83759 13.1696C1.81386 12.9933 1.79253 12.8163 1.77928 12.639C1.77247 12.5487 1.73752 12.5223 1.65787 12.5227C1.23185 12.5253 0.805637 12.5235 0.37961 12.5233C0.349994 12.5233 0.320378 12.5233 0.266113 12.5233C0.294625 12.4742 0.30695 12.4425 0.327368 12.4189C0.895588 11.7623 1.46399 11.106 2.03423 10.4514C2.09825 10.3779 2.17312 10.3155 2.24173 10.2465C2.2684 10.2196 2.29673 10.1922 2.31605 10.1595C2.47958 9.88116 2.72129 9.67747 2.91388 9.42683C2.9584 9.36898 2.98139 9.40761 3.01137 9.44843C3.1177 9.59208 3.20912 9.75732 3.33936 9.86947C3.63717 10.1255 3.86637 10.449 4.12574 10.7423C4.62461 11.3061 5.11226 11.8815 5.60432 12.4524C5.61591 12.4658 5.62309 12.4837 5.64185 12.5152C5.59789 12.5201 5.5668 12.5265 5.5359 12.5265C5.10361 12.5261 4.67152 12.5251 4.23924 12.5231C4.18423 12.5229 4.14377 12.5328 4.13549 12.6035C4.07019 13.1605 4.01077 13.7173 4.02898 14.281C4.05786 15.1716 4.40313 15.8835 5.04659 16.4382C5.48549 16.8167 5.96119 17.1339 6.44166 17.4442C6.68043 17.5983 6.92214 17.7475 7.16164 17.9005C7.18574 17.9159 7.20413 17.9419 7.2251 17.9629C7.22197 17.9686 7.21903 17.9748 7.2159 17.9807Z" fill="#808285"/>
</g>
<defs>
<clipPath id="clip0_456_126">
<rect width="18" height="18" fill="white"/>
</clipPath>
</defs>
</svg>
