<svg width="78" height="77" viewBox="0 0 78 77" fill="none" xmlns="http://www.w3.org/2000/svg">
<path d="M76.9392 66.5714L61.7494 51.5789C61.0638 50.9023 60.1345 50.5263 59.1594 50.5263H56.676C60.881 45.218 63.3796 38.5414 63.3796 31.2782C63.3796 14 49.1954 0 31.6898 0C14.1842 0 0 14 0 31.2782C0 48.5564 14.1842 62.5564 31.6898 62.5564C39.0486 62.5564 45.8131 60.0902 51.1912 55.9399V58.391C51.1912 59.3534 51.5721 60.2707 52.2577 60.9474L67.4475 75.9399C68.8796 77.3534 71.1954 77.3534 72.6123 75.9399L76.924 71.6842C78.3561 70.2707 78.3561 67.985 76.9392 66.5714ZM31.6898 50.5263C20.9183 50.5263 12.1884 41.9248 12.1884 31.2782C12.1884 20.6466 20.9031 12.0301 31.6898 12.0301C42.4613 12.0301 51.1912 20.6316 51.1912 31.2782C51.1912 41.9098 42.4765 50.5263 31.6898 50.5263Z" fill="white"/>
</svg>
