<svg width="70" height="65" viewBox="0 0 70 65" fill="none" xmlns="http://www.w3.org/2000/svg">
<g clip-path="url(#clip0_1_17326)">
<path d="M53.4246 64.9997C48.2517 64.9305 43.353 63.7756 38.6543 61.8394C31.4298 58.8632 25.1096 54.6331 19.368 49.632C13.4576 44.4833 8.47257 38.6627 4.78249 31.9292C2.71291 28.1532 1.13159 24.2089 0.376092 20.018C-0.454754 15.4094 0.0144178 10.9437 2.517 6.80232C4.98241 2.72353 8.79004 0.534157 13.7892 0.124876C14.5557 0.0622693 15.3263 0.052925 16.0949 0.00807223C17.4501 -0.07042 18.5814 0.394927 19.5549 1.23685C20.9212 2.41797 21.7982 3.90559 22.5156 5.47263C23.0852 6.71542 23.5634 7.99466 24.0728 9.26175C24.8795 11.2708 25.6943 13.2779 26.4719 15.2972C26.7522 16.0261 26.9742 16.7793 27.156 17.5361C27.4715 18.8556 27.2183 20.1133 26.4739 21.2645C25.3065 23.0717 23.8538 24.6406 21.9459 25.8171C21.4868 26.1002 21.0247 26.388 20.6108 26.7244C19.7447 27.4299 19.6121 28.0233 20.2802 28.8886C21.5481 30.5294 22.7637 32.2301 24.2305 33.7083C28.5837 38.0936 33.2623 42.1668 38.3599 45.8083C38.6513 46.0167 38.9727 46.1877 39.2721 46.3867C39.6971 46.6699 40.0548 46.6203 40.4265 46.2746C42.1906 44.6347 43.9628 43.0022 45.7431 41.3772C47.0441 40.1896 48.5842 39.4943 50.4398 39.6569C51.1612 39.7195 51.8895 39.9139 52.5677 40.1597C57.5025 41.951 62.4263 43.7712 67.3531 45.5822C68.7807 46.1073 69.4136 47.2043 69.7392 48.4995C70.1671 50.2029 70.0315 51.9055 69.6065 53.5893C69.0048 55.9721 67.8846 58.1381 66.259 60.0584C63.8338 62.9233 60.5436 64.3306 56.7279 64.7754C55.6339 64.9043 54.5257 64.9277 53.4246 64.9997Z" fill="white"/>
</g>
<defs>
<clipPath id="clip0_1_17326">
<rect width="70" height="65" fill="white"/>
</clipPath>
</defs>
</svg>
