<svg width="113" height="115" viewBox="0 0 113 115" fill="none" xmlns="http://www.w3.org/2000/svg">
<path d="M112.132 85.3671C112.118 81.774 111.316 81.0314 107.53 81.0098C101.606 80.9763 95.6816 81.0002 89.7573 80.9978H83.9605C83.7152 80.3223 83.5901 80.1355 83.5901 79.9486C83.5582 75.1601 83.5606 70.374 83.514 65.5856C83.4772 61.76 82.5254 60.845 78.6004 60.8426C63.5822 60.833 48.5664 60.8306 33.5507 60.8426C29.6821 60.845 28.7401 61.7816 28.718 65.667C28.691 70.6399 28.7131 75.6129 28.7131 81.0002C20.3258 81.0002 12.4757 80.9763 4.62563 81.0098C0.926276 81.0266 0.114283 81.8219 0.0995643 85.4462C0.0652202 93.6242 0.0603139 101.805 0.102017 109.985C0.121643 113.389 0.992511 114.211 4.51769 114.213C38.9452 114.227 73.3702 114.227 107.795 114.211C111.242 114.211 112.115 113.341 112.132 109.906C112.169 101.728 112.169 93.5476 112.132 85.3671ZM66.997 103.798L56.4877 98.2091C56.338 98.2067 56.1884 98.2067 56.0387 98.2139L45.3896 103.489L47.5925 91.9594C47.5312 91.8156 47.4625 91.6743 47.3889 91.533L39.0139 83.3262L51.0785 81.7907C51.0981 81.7739 51.1202 81.7572 51.1398 81.7404L51.1422 81.738L56.679 71.1741L61.9214 81.9392L73.9762 83.8245L65.1105 92.0193L66.997 103.798Z" fill="#F2FF00"/>
<path d="M89.2309 9.65152C89.1401 7.25608 88.1564 6.21406 85.6787 6.3003C82.7767 6.40091 79.8672 6.32425 77.0118 6.32425C76.4868 0.335647 76.4868 0.333252 70.6507 0.333252H43.9948C37.6142 0.333252 37.6142 0.333252 36.5225 6.39612C33.6597 6.39612 30.7282 6.42486 27.7967 6.38414C25.8783 6.35779 24.5855 7.02851 24.4825 9.04787C24.09 16.8307 26.2487 23.8086 33.3997 27.8162C38.6175 30.7362 44.3383 32.7915 48.9404 36.7607C49.3746 37.1368 50.0222 37.3548 50.6085 37.477C52.3208 37.8291 52.5195 38.9454 52.3821 40.3826C52.0093 44.3327 49.6322 46.3377 43.8942 47.2767C43.8084 48.0528 43.7029 48.6373 43.6833 49.2218C43.541 53.5696 43.5459 53.5719 47.8708 53.5743C54.4084 53.5743 60.9436 53.548 67.4788 53.5887C69.1396 53.6007 70.4643 53.2821 70.1478 51.3346C69.878 49.6841 71.5118 47.2025 67.8836 46.8839C64.2259 46.5605 62.1089 44.3878 61.579 41.3552C61.2356 39.3861 61.5275 38.1645 63.8383 37.2877C66.0241 36.4565 67.7879 34.5881 69.7725 33.2227C70.8936 32.4513 71.9877 31.4453 73.2535 31.1003C84.0032 28.1611 89.6479 20.6035 89.2309 9.65152ZM30.6718 12.4494H36.7703C37.3419 16.1456 37.9135 19.8321 38.5832 24.1439C33.5665 21.4563 31.0765 17.7601 30.6718 12.4494ZM74.9781 23.8565C75.5938 19.9807 76.1679 16.3755 76.7787 12.5332H82.5534C82.7202 17.475 80.0537 21.5617 74.9781 23.8565Z" fill="#F2FF00"/>
</svg>
