<svg width="22" height="17" viewBox="0 0 22 17" fill="none" xmlns="http://www.w3.org/2000/svg">
<g clip-path="url(#clip0_2483_1405)">
<path d="M21.8454 12.2585V12.248C19.941 14.2147 15.3691 15.254 11.0035 15.254C7.47662 15.254 3.81225 14.5716 1.52975 13.2734C1.51256 13.2629 1.49537 13.2559 1.48162 13.2454C1.36131 13.1754 1.24787 13.1019 1.13443 13.0284C1.07943 12.9899 1.01756 12.9549 0.965996 12.9199C0.907559 12.8779 0.855996 12.8359 0.800996 12.794C0.567246 12.619 0.350684 12.437 0.168496 12.248V12.255C0.168496 12.255 0.165059 12.2515 0.161621 12.248V12.8639C0.161621 15.142 5.02912 17.0002 11.0104 17.0002C16.9916 17.0002 21.8522 15.142 21.8522 12.8639V12.2515C21.8522 12.2515 21.8522 12.2515 21.8522 12.255L21.8454 12.2585Z" fill="#808285"/>
<path d="M13.2928 4.66113C13.2034 4.65413 13.1175 4.64714 13.0281 4.64014C13.0281 4.64014 13.0247 4.64014 13.0213 4.64014C13.0213 4.75912 13.0075 4.87809 12.9972 5.00057C12.9731 5.24553 12.9284 5.48349 12.87 5.71445C12.8666 5.73194 12.8631 5.74944 12.8563 5.76694C12.8563 5.76694 12.8563 5.77044 12.8563 5.77394C13.1691 5.79843 13.475 5.82993 13.7775 5.87192C13.7775 5.87192 13.9013 5.88942 13.9734 5.89991C13.9872 5.89991 13.9975 5.90691 14.0078 5.91041L13.9081 6.0014L13.4097 6.44932L13.2619 6.57879C13.0419 6.5473 12.8116 6.5228 12.5812 6.50531C12.5675 6.5368 12.5538 6.5648 12.54 6.59279C12.5159 6.64178 12.4884 6.68728 12.4609 6.73627C12.4472 6.75376 12.4403 6.77826 12.4266 6.79576C12.4266 6.79576 12.4266 6.79926 12.4231 6.80276C15.1422 7.03371 17.2322 7.91206 17.2322 8.92688C17.2322 10.1132 14.3756 11.114 10.9966 11.114C7.6175 11.114 4.7575 10.1132 4.7575 8.92688C4.7575 8.02054 6.43156 7.22268 8.73125 6.89724C8.99937 6.86224 9.27437 6.82725 9.55969 6.80625C9.55969 6.80625 9.56312 6.80625 9.56656 6.80625C9.52531 6.73627 9.48406 6.66978 9.44625 6.59629C9.32938 6.37583 9.24 6.14487 9.17125 5.91041C9.04406 5.48699 8.98563 5.06006 8.97188 4.65763C8.97188 4.65763 8.97188 4.65413 8.97188 4.65063C3.87406 5.01107 0 6.76076 0 8.85689V10.1832C0 10.4246 0.0515625 10.6661 0.15125 10.897C0.34375 11.3415 0.711562 11.7649 1.22719 12.1533C2.08656 12.8042 3.35156 13.3501 4.88812 13.749C4.93281 13.7595 4.97406 13.7735 5.01875 13.784C5.04281 13.791 5.06344 13.7945 5.0875 13.8015C6.79594 14.2284 8.82406 14.4769 11 14.4769C13.3581 14.4769 15.5444 14.1865 17.3353 13.6895C17.3422 13.6895 17.3525 13.686 17.3594 13.6825C17.4212 13.665 17.4831 13.6475 17.545 13.6301C18.7584 13.2801 19.7794 12.8357 20.5391 12.3178C20.6044 12.2723 20.6697 12.2268 20.7316 12.1813C20.7384 12.1743 20.7488 12.1708 20.7556 12.1638C21.2781 11.7754 21.6494 11.3485 21.8419 10.9005C21.9416 10.6661 21.9931 10.4281 21.9931 10.1867V8.86039C21.9931 6.80275 18.2566 5.07756 13.2894 4.66463L13.2928 4.66113ZM12.7256 11.3275C13.4406 11.2575 14.1075 11.142 14.7022 10.988L14.7606 11.016L15.2831 11.2925L15.6647 11.4989C15.4206 11.5619 15.1594 11.6144 14.8741 11.6704L14.8259 11.6809C14.7297 11.6984 14.6266 11.7194 14.5234 11.7334C14.4409 11.7474 14.3619 11.7614 14.2759 11.7754C14.1247 11.7999 13.97 11.8174 13.8188 11.8384L13.7775 11.8454C13.6606 11.8594 13.5403 11.8769 13.4166 11.8874C13.3134 11.9014 13.2034 11.9119 13.0969 11.9224L12.8391 11.5129L12.7291 11.331L12.7256 11.3275ZM15.0219 6.93223L16.1562 6.34084C16.7303 6.50531 17.2494 6.70127 17.71 6.91823C17.8097 6.96723 17.9094 7.01622 18.0022 7.06871L16.5309 7.40465L16.3247 7.45014C16.0222 7.28567 15.6681 7.1422 15.2728 7.01272C15.1903 6.98472 15.1078 6.95673 15.0184 6.92873L15.0219 6.93223ZM17.3009 8.2375L19.2225 8.00304C19.4425 8.28649 19.5525 8.57344 19.5525 8.85689C19.5525 8.89189 19.5525 8.92688 19.5456 8.96887L17.5381 8.90588C17.5381 8.70292 17.4625 8.50695 17.3456 8.31449C17.3319 8.28999 17.3181 8.2655 17.3009 8.2375ZM16.2663 10.4071C16.6238 10.2252 16.9125 10.0187 17.1256 9.80173H17.3319L17.8888 9.87171L18.425 9.9382L18.5487 9.9522L18.9234 10.0222C18.865 10.0782 18.7962 10.1307 18.7206 10.1937C18.6966 10.2112 18.6691 10.2322 18.6484 10.2461C18.6381 10.2531 18.6313 10.2601 18.6278 10.2636C18.6141 10.2741 18.6038 10.2776 18.5694 10.3056C18.5212 10.3406 18.4697 10.3756 18.4044 10.4141C18.3494 10.4561 18.2841 10.4911 18.2222 10.5296C18.095 10.6031 17.9609 10.6766 17.8234 10.7431L17.7925 10.7571C17.7341 10.7851 17.6756 10.813 17.6034 10.848L17.4694 10.8025H17.4522L17.3491 10.7606L16.6925 10.5471L16.2834 10.4071H16.2663ZM8.0025 11.8069L8.53531 11.317L8.61438 11.2435C9.30188 11.3415 10.0444 11.4009 10.8281 11.4079V12.0133C10.67 12.0133 10.5119 12.0133 10.3503 12.0028H10.2644C10.2644 12.0028 10.2334 12.0028 10.2059 12.0028C10.0581 11.9958 9.91375 11.9888 9.76594 11.9818L9.58031 11.9713C9.42562 11.9608 9.27094 11.9503 9.12313 11.9363C8.89281 11.9189 8.67281 11.8944 8.44938 11.8699C8.32906 11.8559 8.21562 11.8384 8.09875 11.8244L8.03344 11.8139L7.99906 11.8069H8.0025ZM2.7775 9.70374C2.7775 9.70374 2.75 9.67225 2.73969 9.65475C2.71562 9.61976 2.68812 9.58476 2.66062 9.53927C2.64344 9.51828 2.63313 9.49378 2.61937 9.47278V9.46229L2.61594 9.44129L2.58844 9.40979C2.57469 9.3818 2.5575 9.35031 2.54031 9.30481C2.52656 9.27332 2.51281 9.23833 2.5025 9.20683C2.49219 9.16834 2.48187 9.13334 2.47844 9.12285L2.46469 9.04236C2.45438 8.99687 2.45094 8.94438 2.45094 8.89539V8.84989C2.45094 8.8149 2.45094 8.77991 2.45094 8.74491L4.36219 8.8044H4.46875C4.46875 8.84639 4.455 8.87789 4.455 8.91288C4.455 9.08785 4.50656 9.25932 4.5925 9.42729C4.60281 9.44479 4.60969 9.46579 4.62 9.48328L4.33469 9.51828L4.11469 9.54277L4.06656 9.55327L3.14875 9.66525L2.77406 9.70724L2.7775 9.70374ZM3.0525 7.6986C3.37906 7.39765 3.82938 7.1177 4.39656 6.85875L5.84375 7.33466L5.87125 7.34516C5.5 7.52363 5.19062 7.72309 4.95344 7.93655L4.74719 7.91906L3.7125 7.78958L3.04906 7.7021L3.0525 7.6986ZM3.99781 10.6416L5.27313 10.3441L5.51719 10.2951C5.81281 10.4701 6.17031 10.6276 6.5725 10.7676C6.65844 10.799 6.74094 10.8305 6.83031 10.8585L5.85406 11.3694C5.76125 11.3415 5.66844 11.3135 5.57219 11.2855C5.5 11.2645 5.42781 11.24 5.35219 11.2155C5.30406 11.2015 5.25594 11.184 5.20094 11.1665C5.0325 11.107 4.8675 11.044 4.7025 10.981C4.675 10.967 4.64406 10.96 4.60969 10.9425C4.54094 10.9145 4.47906 10.8865 4.41031 10.855C4.33125 10.82 4.25219 10.7851 4.17313 10.7431C4.12156 10.7186 4.07344 10.6941 4.02531 10.6661C4.015 10.6591 4.00469 10.6521 3.99437 10.6451L3.99781 10.6416ZM9.33281 6.49831C8.64875 6.5648 8.01625 6.66978 7.44219 6.80975L7.37344 6.77126L6.35938 6.23585L6.33187 6.22186L6.32156 6.21136C7.11562 6.01539 7.97844 5.87192 8.89281 5.78793L8.96844 5.91391L9.22281 6.31634L9.33625 6.50181L9.33281 6.49831Z" fill="#808285"/>
<path d="M7.42857 2.58254H8.12639C8.25701 2.58254 8.37045 2.50906 8.43576 2.40058L10.5361 2.32709C10.6529 2.32709 10.7423 2.43557 10.7148 2.55455C10.6804 2.70152 10.6289 2.8415 10.5429 2.97448C10.4708 3.09345 10.3745 3.20194 10.2508 3.29992C10.2508 3.29992 10.2198 3.32791 10.2026 3.34191C10.1614 3.3734 10.1201 3.4014 10.0754 3.42939L10.0033 3.47139H9.82107C9.81076 3.52038 9.80732 3.57987 9.79701 3.64286C9.76607 3.88781 9.73857 4.22375 9.75232 4.59819C9.76607 5.00062 9.83139 5.44504 9.98607 5.86846C10.0067 5.92445 10.0342 5.97694 10.0583 6.03294C10.0583 6.03993 10.0617 6.04343 10.0651 6.05043C10.0926 6.10992 10.1133 6.17291 10.1442 6.2324C10.2301 6.40387 10.3401 6.56834 10.4673 6.72231L10.4914 6.75031L10.5429 6.8098V7.80362L10.3608 7.88411C10.1408 7.98209 9.8967 8.12207 9.7042 8.25504C9.44295 8.43701 9.37076 8.80095 9.55295 9.0564C9.55295 9.0564 9.55295 9.0634 9.55982 9.0669C9.7042 9.26637 10.1373 9.73528 11.0139 9.73528C11.8904 9.73528 12.3201 9.26637 12.4679 9.0669C12.4679 9.0669 12.4679 9.0599 12.4748 9.0564C12.657 8.79745 12.5814 8.43351 12.327 8.25854C12.1345 8.12557 11.887 7.98559 11.667 7.88411L11.4848 7.80362V6.8098L11.5364 6.75031L11.5604 6.72231C11.6361 6.63133 11.7048 6.54035 11.7633 6.44586C11.8079 6.37587 11.8492 6.30589 11.887 6.2324C11.9145 6.18341 11.9317 6.13092 11.9558 6.07843C11.9626 6.06793 11.9661 6.05393 11.9729 6.04343C11.997 5.98744 12.0279 5.93145 12.0486 5.87196C12.0658 5.82647 12.0829 5.77398 12.0967 5.72849C12.0967 5.72849 12.0967 5.72616 12.0967 5.72149C12.1792 5.45904 12.2273 5.19308 12.2514 4.93413C12.2651 4.82215 12.2686 4.71017 12.272 4.60169C12.2858 4.22725 12.2583 3.89131 12.2308 3.64636C12.2204 3.58337 12.217 3.52388 12.2067 3.47489H12.0245L11.9523 3.43289C11.9076 3.4049 11.8629 3.3769 11.8251 3.34541C11.8079 3.33141 11.7873 3.32091 11.7736 3.30342C11.6498 3.20543 11.557 3.09345 11.4848 2.97797C11.3989 2.845 11.3439 2.70152 11.3095 2.55455C11.282 2.43907 11.3748 2.33059 11.4883 2.33059L13.5851 2.40408C13.6504 2.51256 13.7639 2.58604 13.8945 2.58604H14.5923C14.637 2.58604 14.6748 2.54755 14.6748 2.50206V1.77419C14.6748 1.7287 14.637 1.6902 14.5923 1.6902H13.8945C13.7604 1.6902 13.6504 1.76369 13.5817 1.87217L11.2476 1.93516C11.2476 1.89317 11.2476 1.85467 11.2476 1.81618V1.7112L11.3061 1.62721C11.3061 1.62721 11.4504 1.42075 11.5501 1.1163L11.5604 1.08131L11.3679 0.969329L11.3404 0.951832L11.5708 0.664883C11.6292 0.594895 11.6567 0.524907 11.6567 0.45142C11.6567 0.209963 11.3679 0 11.0208 0C10.6736 0 10.3814 0.209963 10.3814 0.45142C10.3814 0.524907 10.4123 0.598394 10.4673 0.664883L10.6701 0.913339L10.7011 0.951832L10.4811 1.07781L10.4948 1.1128C10.5911 1.41725 10.7354 1.62371 10.7389 1.62721L10.7973 1.7077V1.81268C10.7973 1.85117 10.7973 1.88967 10.7973 1.93166L8.45982 1.86867C8.39107 1.76019 8.28107 1.6867 8.14701 1.6867H7.4492C7.40451 1.6867 7.3667 1.7252 7.3667 1.77069V2.49856C7.3667 2.54405 7.40451 2.58254 7.4492 2.58254H7.42857ZM11.0242 3.3909C11.117 3.52038 11.2201 3.63936 11.3404 3.74434L10.8179 4.57019L10.5945 4.92363L10.4329 5.16859C10.3986 4.96912 10.3745 4.76966 10.3711 4.57719C10.3642 4.35673 10.3711 4.14677 10.3848 3.9718C10.3848 3.9718 10.4364 3.9403 10.457 3.92631H10.4673L10.567 3.84932C10.5911 3.83532 10.6083 3.81783 10.6358 3.80033H10.6426C10.7733 3.68835 10.8867 3.56937 10.9829 3.43639C10.9967 3.4224 11.0104 3.4084 11.0208 3.3909H11.0242Z" fill="#808285"/>
</g>
<defs>
<clipPath id="clip0_2483_1405">
<rect width="22" height="17" fill="white"/>
</clipPath>
</defs>
</svg>
