<svg width="99" height="112" viewBox="0 0 99 112" fill="none" xmlns="http://www.w3.org/2000/svg">
<g clip-path="url(#clip0_1_17206)" filter="url(#filter0_d_1_17206)">
<path d="M94.1466 68.2856C93.6265 65.7803 92.9495 63.3162 91.9887 60.9247C90.8031 57.9745 89.228 55.1939 87.3086 52.5861C84.1214 48.2559 80.2021 44.5488 75.7094 41.3258C72.9324 39.3334 69.8592 37.7566 66.9343 35.9727C64.5439 34.515 62.2094 32.9875 60.2886 31.0011C60.1202 30.8268 59.8368 30.6992 59.5831 30.6468C58.0479 30.3301 56.5068 30.0377 54.965 29.7509C54.8288 29.7257 54.6002 29.7572 54.543 29.8381C54.4834 29.9218 54.542 30.1179 54.614 30.2303C55.7785 32.048 57.0088 33.8332 58.111 35.6816C59.306 37.6859 60.177 39.8204 60.7774 42.0398C61.0016 42.8672 60.441 43.7748 59.5935 43.9854C58.6175 44.2279 57.6865 43.7726 57.391 42.9076C57.092 42.0328 56.8353 41.1436 56.4871 40.2852C55.3635 37.5173 53.7413 34.9859 52.0276 32.4933C51.6025 31.8746 51.1555 31.6024 50.3697 31.6855C50.0863 31.7155 49.9228 31.7808 49.8074 31.9997C49.5555 32.4778 49.2693 32.943 49.05 33.4331C48.4091 34.8655 47.6832 36.2775 47.194 37.7535C46.431 40.0537 46.228 42.4396 46.2924 44.8425C46.2997 45.115 46.2685 45.4178 46.1435 45.6582C45.7672 46.3801 44.9738 46.7158 44.1724 46.5503C43.3668 46.3839 42.7428 45.728 42.7699 44.9473C42.8229 43.4204 42.9046 41.8933 43.0294 40.3702C43.1981 38.3137 43.8398 36.3539 44.7039 34.4632C45.3802 32.9825 46.167 31.5434 46.9057 30.0863C47.1132 29.6773 46.9168 29.3912 46.4238 29.4174C45.6757 29.4569 44.9246 29.4838 44.1821 29.5709C42.6174 29.7547 41.0517 29.9423 39.4981 30.1892C38.3322 30.3743 37.1868 30.6648 36.0278 30.8884C35.3179 31.0255 34.6752 31.2273 34.2446 31.8191C34.0519 32.0834 33.7879 32.312 33.526 32.5261C31.2289 34.4001 28.9439 36.2873 26.6183 38.1315C23.1879 40.8521 19.8063 43.6175 16.7647 46.7066C14.4932 49.0138 12.4594 51.4821 10.7146 54.1499C9.24239 56.4009 8.00133 58.7507 7.01665 61.2067C6.43873 62.648 5.93254 64.1205 5.51469 65.607C4.92153 67.7165 4.50542 69.8585 4.23898 72.0306C3.81559 75.4857 3.95695 78.9143 4.64574 82.3198C5.05492 84.3419 5.71495 86.3052 6.60885 88.2056C7.75949 90.6521 9.26457 92.8835 11.2038 94.8721C13.3453 97.0675 15.8593 98.8293 18.7804 100.063C19.8465 100.513 20.8558 101.292 22.0387 100.996C22.2161 101.171 22.3086 101.333 22.4506 101.388C22.7621 101.509 23.1061 101.559 23.4228 101.671C23.7766 101.797 24.0905 101.873 24.2142 101.529C24.4636 101.721 24.6511 101.985 24.8877 102.029C27.0192 102.428 29.1493 102.852 31.3002 103.142C33.44 103.431 35.5993 103.63 37.7574 103.765C39.9839 103.903 42.219 103.959 44.4509 103.975C48.5736 104.005 52.6973 104.016 56.8193 103.962C58.8531 103.935 60.8949 103.827 62.9134 103.606C65.1222 103.364 67.3147 102.979 69.5027 102.602C72.1882 102.139 74.7725 101.355 77.2806 100.375C79.6172 99.4615 81.8236 98.3266 83.8747 96.9513C86.6596 95.084 89.0201 92.8453 90.8488 90.1677C92.4107 87.881 93.5039 85.4134 94.1646 82.7796C94.6275 80.9341 94.9022 79.0703 94.9767 77.185C95.0949 74.1903 94.7581 71.2294 94.1466 68.2856ZM64.4455 52.167C64.4258 52.1913 64.4043 52.2147 64.3863 52.24C63.4463 53.5793 62.5056 54.9179 61.5681 56.2585C61.521 56.3261 61.4721 56.3501 61.3845 56.3501C58.7395 56.3475 56.0949 56.3482 53.4502 56.3482H53.3307C53.3394 56.3687 53.34 56.3756 53.3442 56.3797C53.452 56.4893 53.5614 56.5973 53.6682 56.7082C54.3427 57.4086 54.9428 58.1558 55.3842 59.0012C55.6794 59.5661 55.8981 60.1513 55.9261 60.7838C55.9292 60.8577 55.9784 60.8476 56.0287 60.847C56.6579 60.8397 57.2867 60.8321 57.9159 60.8252C59.7089 60.805 61.5023 60.7845 63.2952 60.7655C63.6788 60.7614 64.062 60.7636 64.4455 60.763V60.7813C64.3991 60.8407 64.3506 60.8985 64.3073 60.9594C63.3898 62.2539 62.4724 63.548 61.5577 64.8437C61.5158 64.9028 61.4721 64.9226 61.3959 64.9239C59.5658 64.9517 57.7357 64.9823 55.9057 65.0126C55.8828 65.013 55.8596 65.0158 55.8437 65.0171C55.7674 65.3768 55.7054 65.7333 55.6157 66.0838C55.255 67.4916 54.5988 68.7757 53.6484 69.9337C52.5941 71.2183 51.2823 72.2406 49.7856 73.0721C48.1482 73.9822 46.3832 74.6147 44.5348 75.0644C43.5124 75.3129 42.475 75.4942 41.4283 75.6319C41.2426 75.6562 41.0562 75.6745 40.8459 75.6982C46.7297 82.5481 52.6034 89.3864 58.4883 96.2379C58.4429 96.2414 58.4152 96.2451 58.3871 96.2451C55.87 96.2464 53.3529 96.2474 50.8361 96.2502C50.7703 96.2505 50.7321 96.229 50.694 96.1851C49.7187 95.0707 48.7424 93.9569 47.766 92.8431C46.4161 91.3029 45.0656 89.7631 43.7157 88.223C42.1722 86.4627 40.6294 84.7022 39.0862 82.9416C37.7065 81.368 36.3265 79.7947 34.9469 78.2214C34.3863 77.5819 33.8253 76.9428 33.2672 76.3014C33.2387 76.2692 33.2204 76.2193 33.2214 76.1779C33.2426 75.2305 33.2672 74.2828 33.2911 73.3354C33.299 73.0073 33.3066 72.6792 33.315 72.3511C33.3153 72.3303 33.3181 72.3091 33.3198 72.2879C33.421 72.2879 33.517 72.2826 33.6126 72.2886C34.9555 72.3754 36.3005 72.4225 37.6462 72.3912C38.4119 72.3735 39.178 72.3268 39.9413 72.2655C41.1078 72.1717 42.2529 71.9668 43.3648 71.6238C44.5092 71.2711 45.5614 70.7668 46.4768 70.0404C47.2834 69.3997 47.9136 68.6345 48.3966 67.7667C48.8952 66.8705 49.2122 65.9199 49.4259 64.9211C43.5841 64.8901 37.7491 64.8589 31.9007 64.8276C31.9201 64.7944 31.9336 64.7679 31.9499 64.743C32.8642 63.3465 33.7789 61.9504 34.6922 60.5533C34.7251 60.5028 34.7584 60.4803 34.8259 60.4813C36.6023 60.5053 38.3787 60.5265 40.155 60.5492C41.5579 60.5669 42.9608 60.5858 44.3636 60.6041C45.7533 60.6225 47.1427 60.6408 48.5324 60.6591C48.5851 60.6597 48.6381 60.6591 48.7053 60.6591C48.688 60.6237 48.6758 60.5969 48.6616 60.5707C48.0172 59.3962 47.0325 58.5281 45.7724 57.9088C44.8012 57.4317 43.7611 57.1313 42.6884 56.9166C41.9272 56.7641 41.1574 56.6589 40.3827 56.5815C39.3422 56.4776 38.299 56.4129 37.253 56.4003C36.1058 56.3861 34.9583 56.3832 33.8111 56.3889C33.1116 56.3921 32.4121 56.4211 31.7125 56.4382C31.6793 56.4391 31.646 56.4385 31.5951 56.4385C31.6211 56.4015 31.6394 56.3741 31.6592 56.3475C32.6678 54.9865 33.6763 53.6257 34.6828 52.2633C34.7255 52.2059 34.7684 52.1841 34.845 52.1841C36.7464 52.1847 38.6475 52.1834 40.549 52.1809C44.6408 52.1759 48.7327 52.1702 52.8245 52.1645C56.6707 52.1591 60.5165 52.1534 64.3627 52.1481C64.3904 52.1481 64.4178 52.1484 64.4455 52.1487V52.167Z" fill="#F2FF00"/>
<path d="M16.7414 18.2988C16.4573 17.1992 16.414 15.1396 17.7455 14.4332C18.2586 14.161 18.8757 14.0021 19.4675 13.9143C20.2193 13.8032 20.9927 13.8041 21.7577 13.7798C23.3158 13.7302 24.1653 13.1773 24.5714 11.7925C24.826 10.9231 24.9733 10.0247 25.1191 9.13288C25.3741 7.57316 26.3952 6.61093 27.9283 6.01913C29.6746 5.34522 31.3203 5.65281 32.9311 6.41861C33.4563 6.66872 34.0169 6.85757 34.5463 7.10105C35.5788 7.57537 37.3153 6.72936 37.7581 5.77565C38.1618 4.90627 38.5141 4.01699 38.932 3.15329C39.5501 1.87495 40.444 0.822716 41.9394 0.302601C43.1129 -0.105723 44.3013 -0.0662481 45.489 0.215757C47.5591 0.707451 49.3216 1.73158 51.0097 2.88676C51.4206 3.16781 51.8703 3.40656 52.3211 3.63361C53.437 4.19573 54.14 3.81109 54.7841 3.19908C55.2269 2.77812 55.6659 2.32432 56.1977 2.01579C57.268 1.39525 58.4734 1.34567 59.6815 1.61821C62.8015 2.32211 65.4396 3.75204 67.4657 6.04755C68.3534 7.05305 68.9448 8.19686 69.0713 9.50457C69.2036 10.8713 68.6763 12.0072 67.6539 13.002C66.4318 14.1916 64.8616 14.9495 63.4581 15.913C61.5937 17.1929 60.3107 18.8527 59.4626 20.8227C58.7336 22.516 58.4498 24.2778 58.368 26.0781C58.3615 26.2259 58.3816 26.3747 58.3847 26.5228C58.3878 26.6668 58.3854 26.8108 58.3854 26.9892C57.3304 26.8266 56.3731 26.67 55.4119 26.5357C55.1219 26.495 54.9615 26.3864 54.8486 26.1312C54.3569 25.0205 53.4748 24.2705 52.2473 23.8433C50.2828 23.1589 47.7816 24.0602 46.8742 25.8094C46.7352 26.0769 46.5731 26.1805 46.2529 26.1972C43.5858 26.3377 40.9356 26.6093 38.3191 27.119C37.7314 27.2336 37.1411 27.3382 36.5475 27.4215C36.4252 27.4389 36.1983 27.3716 36.1633 27.2911C35.68 26.1805 34.6056 25.6847 33.5173 25.2896C30.9049 24.341 28.2551 23.4776 25.624 22.5706C23.2946 21.7675 20.9216 21.0538 18.7472 19.9208C18.0043 19.5339 17.2618 19.1256 16.8132 18.4147C16.7889 18.3762 16.7522 18.3405 16.7414 18.2988Z" fill="#F2FF00"/>
</g>
<defs>
<filter id="filter0_d_1_17206" x="0" y="0" width="99" height="112" filterUnits="userSpaceOnUse" color-interpolation-filters="sRGB">
<feFlood flood-opacity="0" result="BackgroundImageFix"/>
<feColorMatrix in="SourceAlpha" type="matrix" values="0 0 0 0 0 0 0 0 0 0 0 0 0 0 0 0 0 0 127 0" result="hardAlpha"/>
<feOffset dy="4"/>
<feGaussianBlur stdDeviation="2"/>
<feComposite in2="hardAlpha" operator="out"/>
<feColorMatrix type="matrix" values="0 0 0 0 0 0 0 0 0 0 0 0 0 0 0 0 0 0 0.25 0"/>
<feBlend mode="normal" in2="BackgroundImageFix" result="effect1_dropShadow_1_17206"/>
<feBlend mode="normal" in="SourceGraphic" in2="effect1_dropShadow_1_17206" result="shape"/>
</filter>
<clipPath id="clip0_1_17206">
<rect width="91" height="104" fill="white" transform="translate(4)"/>
</clipPath>
</defs>
</svg>
